<mxfile host="app.diagrams.net" modified="2020-08-16T17:21:45.151Z" agent="5.0 (Macintosh)" etag="HORaWThPljwYK0W-Vamu" version="13.6.2" type="github">
  <diagram id="bjzrlniuoW9Y6wsvjh16" name="base-config">
    <mxGraphModel dx="895" dy="706" grid="1" gridSize="10" guides="1" tooltips="1" connect="1" arrows="1" fold="1" page="1" pageScale="1" pageWidth="850" pageHeight="1100" math="0" shadow="0">
      <root>
        <mxCell id="0" />
        <mxCell id="1" parent="0" />
        <mxCell id="K3_CRyfxQu7D6miHCibi-1" value="" style="points=[[0.5,0,0],[1,0.5,0],[0.5,1,0],[0,0.5,0],[0.145,0.145,0],[0.8555,0.145,0],[0.855,0.8555,0],[0.145,0.855,0]];verticalLabelPosition=bottom;html=1;verticalAlign=top;aspect=fixed;align=center;pointerEvents=1;shape=mxgraph.cisco19.rect;prIcon=router;strokeColor=#000000;fillColor=#66B2FF;" parent="1" vertex="1">
          <mxGeometry x="239" y="630" width="50" height="50" as="geometry" />
        </mxCell>
        <mxCell id="K3_CRyfxQu7D6miHCibi-2" value="&lt;div&gt;&lt;b&gt;vboxnet0 (data)&lt;/b&gt;&lt;br&gt;Host Only Adapter 2&lt;/div&gt;&lt;div&gt;10.100.0.0/24&lt;/div&gt;" style="ellipse;shape=cloud;whiteSpace=wrap;html=1;strokeWidth=4;fillColor=#E6E6E6;" parent="1" vertex="1">
          <mxGeometry x="520" y="280" width="200" height="120" as="geometry" />
        </mxCell>
        <mxCell id="K3_CRyfxQu7D6miHCibi-3" value="" style="verticalLabelPosition=bottom;aspect=fixed;html=1;verticalAlign=top;strokeColor=none;align=center;outlineConnect=0;shape=mxgraph.citrix.laptop_1;" parent="1" vertex="1">
          <mxGeometry x="364" y="130" width="91" height="77" as="geometry" />
        </mxCell>
        <mxCell id="K3_CRyfxQu7D6miHCibi-8" value="&lt;br&gt;&lt;div&gt;&lt;b&gt;vboxnet1 (mgmt)&lt;br&gt;&lt;/b&gt;&lt;/div&gt;Host Only Adapter 1&lt;br&gt;&lt;div&gt;192.168.1.255/24&lt;br&gt;&lt;/div&gt;" style="ellipse;shape=cloud;whiteSpace=wrap;html=1;strokeWidth=4;fillColor=#E6E6E6;" parent="1" vertex="1">
          <mxGeometry x="161" y="280" width="200" height="120" as="geometry" />
        </mxCell>
        <mxCell id="K3_CRyfxQu7D6miHCibi-9" value="" style="endArrow=none;html=1;exitX=0.625;exitY=0.2;exitDx=0;exitDy=0;exitPerimeter=0;strokeColor=#FF0000;strokeWidth=4;" parent="1" source="K3_CRyfxQu7D6miHCibi-8" target="K3_CRyfxQu7D6miHCibi-3" edge="1">
          <mxGeometry width="50" height="50" relative="1" as="geometry">
            <mxPoint x="570" y="390" as="sourcePoint" />
            <mxPoint x="620" y="340" as="targetPoint" />
          </mxGeometry>
        </mxCell>
        <mxCell id="K3_CRyfxQu7D6miHCibi-11" value="" style="points=[[0.5,0,0],[1,0.5,0],[0.5,1,0],[0,0.5,0],[0.145,0.145,0],[0.8555,0.145,0],[0.855,0.8555,0],[0.145,0.855,0]];verticalLabelPosition=bottom;html=1;verticalAlign=top;aspect=fixed;align=center;pointerEvents=1;shape=mxgraph.cisco19.rect;prIcon=router;strokeColor=#000000;fillColor=#66B2FF;" parent="1" vertex="1">
          <mxGeometry x="354" y="630" width="50" height="50" as="geometry" />
        </mxCell>
        <mxCell id="K3_CRyfxQu7D6miHCibi-12" value="" style="points=[[0.5,0,0],[1,0.5,0],[0.5,1,0],[0,0.5,0],[0.145,0.145,0],[0.8555,0.145,0],[0.855,0.8555,0],[0.145,0.855,0]];verticalLabelPosition=bottom;html=1;verticalAlign=top;aspect=fixed;align=center;pointerEvents=1;shape=mxgraph.cisco19.rect;prIcon=router;strokeColor=#000000;fillColor=#00CC00;" parent="1" vertex="1">
          <mxGeometry x="469" y="630" width="50" height="50" as="geometry" />
        </mxCell>
        <mxCell id="K3_CRyfxQu7D6miHCibi-13" value="" style="points=[[0.5,0,0],[1,0.5,0],[0.5,1,0],[0,0.5,0],[0.145,0.145,0],[0.8555,0.145,0],[0.855,0.8555,0],[0.145,0.855,0]];verticalLabelPosition=bottom;html=1;verticalAlign=top;aspect=fixed;align=center;pointerEvents=1;shape=mxgraph.cisco19.rect;prIcon=router;strokeColor=#000000;fillColor=#00CC00;" parent="1" vertex="1">
          <mxGeometry x="594" y="630" width="50" height="50" as="geometry" />
        </mxCell>
        <mxCell id="gvP_JUh8MGZcJP30kNER-1" value="" style="endArrow=none;html=1;exitX=0.55;exitY=0.95;exitDx=0;exitDy=0;exitPerimeter=0;strokeColor=#FF0000;strokeWidth=4;entryX=0.5;entryY=0;entryDx=0;entryDy=0;entryPerimeter=0;" parent="1" source="K3_CRyfxQu7D6miHCibi-8" target="K3_CRyfxQu7D6miHCibi-1" edge="1">
          <mxGeometry width="50" height="50" relative="1" as="geometry">
            <mxPoint x="250" y="302" as="sourcePoint" />
            <mxPoint x="270" y="270" as="targetPoint" />
          </mxGeometry>
        </mxCell>
        <mxCell id="gvP_JUh8MGZcJP30kNER-2" value="" style="endArrow=none;html=1;exitX=0.55;exitY=0.95;exitDx=0;exitDy=0;exitPerimeter=0;strokeColor=#FF0000;strokeWidth=4;entryX=0.5;entryY=0;entryDx=0;entryDy=0;entryPerimeter=0;" parent="1" source="K3_CRyfxQu7D6miHCibi-8" target="K3_CRyfxQu7D6miHCibi-11" edge="1">
          <mxGeometry width="50" height="50" relative="1" as="geometry">
            <mxPoint x="280" y="404" as="sourcePoint" />
            <mxPoint x="275" y="560" as="targetPoint" />
          </mxGeometry>
        </mxCell>
        <mxCell id="gvP_JUh8MGZcJP30kNER-3" value="" style="endArrow=none;html=1;exitX=0.55;exitY=0.95;exitDx=0;exitDy=0;exitPerimeter=0;strokeColor=#FF0000;strokeWidth=4;entryX=0.5;entryY=0;entryDx=0;entryDy=0;entryPerimeter=0;" parent="1" source="K3_CRyfxQu7D6miHCibi-8" target="K3_CRyfxQu7D6miHCibi-13" edge="1">
          <mxGeometry width="50" height="50" relative="1" as="geometry">
            <mxPoint x="280" y="404" as="sourcePoint" />
            <mxPoint x="375" y="560" as="targetPoint" />
          </mxGeometry>
        </mxCell>
        <mxCell id="gvP_JUh8MGZcJP30kNER-4" value="" style="endArrow=none;html=1;strokeColor=#FF0000;strokeWidth=4;entryX=0.5;entryY=0;entryDx=0;entryDy=0;entryPerimeter=0;exitX=0.55;exitY=0.95;exitDx=0;exitDy=0;exitPerimeter=0;" parent="1" source="K3_CRyfxQu7D6miHCibi-8" target="K3_CRyfxQu7D6miHCibi-12" edge="1">
          <mxGeometry width="50" height="50" relative="1" as="geometry">
            <mxPoint x="370" y="400" as="sourcePoint" />
            <mxPoint x="575" y="560" as="targetPoint" />
          </mxGeometry>
        </mxCell>
        <mxCell id="y7ACBOp6lDSDF_rMlVb1-1" value="&lt;div&gt;&lt;font style=&quot;font-size: 14px&quot;&gt;&lt;b&gt;csr1000v-rtr-01&lt;/b&gt;&lt;/font&gt;&lt;/div&gt;&lt;div&gt;&lt;font style=&quot;font-size: 14px&quot;&gt;&lt;font size=&quot;3&quot;&gt;Lo0 (.131)&lt;/font&gt;&lt;b&gt;&lt;br&gt;&lt;/b&gt;&lt;/font&gt;&lt;/div&gt;&lt;div&gt;&lt;font size=&quot;3&quot; color=&quot;#FF0000&quot;&gt;Gi1 (.131)&lt;/font&gt;&lt;/div&gt;&lt;div&gt;&lt;font size=&quot;3&quot; color=&quot;#FF8000&quot;&gt;Gi2 (.131)&lt;/font&gt;&lt;b&gt;&lt;br&gt;&lt;/b&gt;&lt;/div&gt;&lt;div&gt;&lt;b&gt;&lt;br&gt;&lt;/b&gt;&lt;/div&gt;" style="text;html=1;strokeColor=none;fillColor=none;align=center;verticalAlign=middle;whiteSpace=wrap;rounded=0;" parent="1" vertex="1">
          <mxGeometry x="199" y="680" width="120" height="120" as="geometry" />
        </mxCell>
        <mxCell id="y7ACBOp6lDSDF_rMlVb1-5" value="&lt;div&gt;&lt;font style=&quot;font-size: 14px&quot;&gt;&lt;b&gt;csr1000v-rtr-02&lt;/b&gt;&lt;/font&gt;&lt;br&gt;&lt;div&gt;&lt;font style=&quot;font-size: 14px&quot;&gt;&lt;font size=&quot;3&quot;&gt;Lo0 (.132)&lt;/font&gt;&lt;b&gt;&lt;br&gt;&lt;/b&gt;&lt;/font&gt;&lt;/div&gt;&lt;/div&gt;&lt;div&gt;&lt;font size=&quot;3&quot; color=&quot;#FF0000&quot;&gt;Gi1 (.132)&lt;/font&gt;&lt;/div&gt;&lt;div&gt;&lt;font size=&quot;3&quot; color=&quot;#FF8000&quot;&gt;Gi2 (.132)&lt;/font&gt;&lt;b&gt;&lt;br&gt;&lt;/b&gt;&lt;/div&gt;&lt;div&gt;&lt;b&gt;&lt;br&gt;&lt;/b&gt;&lt;/div&gt;" style="text;html=1;strokeColor=none;fillColor=none;align=center;verticalAlign=middle;whiteSpace=wrap;rounded=0;" parent="1" vertex="1">
          <mxGeometry x="319" y="680" width="120" height="120" as="geometry" />
        </mxCell>
        <mxCell id="y7ACBOp6lDSDF_rMlVb1-6" value="&lt;div&gt;&lt;font style=&quot;font-size: 14px&quot;&gt;&lt;b&gt;eosv-rtr-01&lt;/b&gt;&lt;/font&gt;&lt;/div&gt;&lt;div&gt;&lt;font style=&quot;font-size: 14px&quot;&gt;&lt;font size=&quot;3&quot;&gt;Lo0 (.133)&lt;/font&gt;&lt;b&gt;&lt;br&gt;&lt;/b&gt;&lt;/font&gt;&lt;/div&gt;&lt;div&gt;&lt;font size=&quot;3&quot; color=&quot;#FF0000&quot;&gt;Ma1 (.133)&lt;/font&gt;&lt;/div&gt;&lt;div&gt;&lt;font size=&quot;3&quot; color=&quot;#FF8000&quot;&gt;Et1 (.133)&lt;/font&gt;&lt;b&gt;&lt;br&gt;&lt;/b&gt;&lt;/div&gt;&lt;div&gt;&lt;b&gt;&lt;br&gt;&lt;/b&gt;&lt;/div&gt;" style="text;html=1;strokeColor=none;fillColor=none;align=center;verticalAlign=middle;whiteSpace=wrap;rounded=0;" parent="1" vertex="1">
          <mxGeometry x="439" y="680" width="120" height="120" as="geometry" />
        </mxCell>
        <mxCell id="y7ACBOp6lDSDF_rMlVb1-7" value="&lt;div&gt;&lt;font style=&quot;font-size: 14px&quot;&gt;&lt;b&gt;eosv-rtr-02&lt;/b&gt;&lt;/font&gt;&lt;/div&gt;&lt;div&gt;&lt;font style=&quot;font-size: 14px&quot;&gt;&lt;font size=&quot;3&quot;&gt;Lo0 (.134)&lt;/font&gt;&lt;b&gt;&lt;br&gt;&lt;/b&gt;&lt;/font&gt;&lt;/div&gt;&lt;div&gt;&lt;font size=&quot;3&quot; color=&quot;#FF0000&quot;&gt;Ma1 (.134)&lt;/font&gt;&lt;/div&gt;&lt;div&gt;&lt;font size=&quot;3&quot; color=&quot;#FF8000&quot;&gt;Et1 (.134)&lt;/font&gt;&lt;b&gt;&lt;br&gt;&lt;/b&gt;&lt;/div&gt;&lt;div&gt;&lt;b&gt;&lt;br&gt;&lt;/b&gt;&lt;/div&gt;" style="text;html=1;strokeColor=none;fillColor=none;align=center;verticalAlign=middle;whiteSpace=wrap;rounded=0;" parent="1" vertex="1">
          <mxGeometry x="559" y="680" width="120" height="120" as="geometry" />
        </mxCell>
        <mxCell id="y7ACBOp6lDSDF_rMlVb1-8" value="" style="endArrow=none;html=1;exitX=0.5;exitY=0;exitDx=0;exitDy=0;exitPerimeter=0;strokeWidth=4;entryX=0.55;entryY=0.95;entryDx=0;entryDy=0;entryPerimeter=0;strokeColor=#FF8000;" parent="1" source="K3_CRyfxQu7D6miHCibi-1" target="K3_CRyfxQu7D6miHCibi-2" edge="1">
          <mxGeometry width="50" height="50" relative="1" as="geometry">
            <mxPoint x="280" y="404" as="sourcePoint" />
            <mxPoint x="550" y="640" as="targetPoint" />
          </mxGeometry>
        </mxCell>
        <mxCell id="y7ACBOp6lDSDF_rMlVb1-9" value="" style="endArrow=none;html=1;exitX=0.5;exitY=0;exitDx=0;exitDy=0;exitPerimeter=0;strokeWidth=4;entryX=0.55;entryY=0.95;entryDx=0;entryDy=0;entryPerimeter=0;strokeColor=#FF8000;" parent="1" source="K3_CRyfxQu7D6miHCibi-11" target="K3_CRyfxQu7D6miHCibi-2" edge="1">
          <mxGeometry width="50" height="50" relative="1" as="geometry">
            <mxPoint x="195" y="640" as="sourcePoint" />
            <mxPoint x="640" y="404" as="targetPoint" />
          </mxGeometry>
        </mxCell>
        <mxCell id="y7ACBOp6lDSDF_rMlVb1-10" value="" style="endArrow=none;html=1;exitX=0.5;exitY=0;exitDx=0;exitDy=0;exitPerimeter=0;strokeWidth=4;strokeColor=#FF8000;entryX=0.55;entryY=0.95;entryDx=0;entryDy=0;entryPerimeter=0;" parent="1" source="K3_CRyfxQu7D6miHCibi-12" target="K3_CRyfxQu7D6miHCibi-2" edge="1">
          <mxGeometry width="50" height="50" relative="1" as="geometry">
            <mxPoint x="310" y="640" as="sourcePoint" />
            <mxPoint x="660" y="440" as="targetPoint" />
          </mxGeometry>
        </mxCell>
        <mxCell id="y7ACBOp6lDSDF_rMlVb1-11" value="" style="endArrow=none;html=1;exitX=0.5;exitY=0;exitDx=0;exitDy=0;exitPerimeter=0;strokeWidth=4;strokeColor=#FF8000;entryX=0.55;entryY=0.95;entryDx=0;entryDy=0;entryPerimeter=0;" parent="1" source="K3_CRyfxQu7D6miHCibi-13" target="K3_CRyfxQu7D6miHCibi-2" edge="1">
          <mxGeometry width="50" height="50" relative="1" as="geometry">
            <mxPoint x="425" y="640" as="sourcePoint" />
            <mxPoint x="640" y="400" as="targetPoint" />
          </mxGeometry>
        </mxCell>
        <mxCell id="XpuALIE9WGxtlJ8F0vGw-2" value="&lt;div&gt;&lt;b&gt;Device Management &lt;br&gt;&lt;/b&gt;&lt;/div&gt;&lt;div&gt;172.16.255.0/24&lt;/div&gt;&lt;div&gt;*use as /32s on Lo&lt;br&gt;&lt;/div&gt;" style="rounded=1;whiteSpace=wrap;html=1;strokeColor=#000000;strokeWidth=4;fillColor=#E6E6E6;" parent="1" vertex="1">
          <mxGeometry x="364" y="310" width="150" height="60" as="geometry" />
        </mxCell>
        <mxCell id="XpuALIE9WGxtlJ8F0vGw-3" value="" style="endArrow=none;html=1;exitX=0.25;exitY=0.25;exitDx=0;exitDy=0;exitPerimeter=0;strokeWidth=4;strokeColor=#FF8000;" parent="1" source="K3_CRyfxQu7D6miHCibi-2" target="K3_CRyfxQu7D6miHCibi-3" edge="1">
          <mxGeometry width="50" height="50" relative="1" as="geometry">
            <mxPoint x="550" y="640" as="sourcePoint" />
            <mxPoint x="640" y="404" as="targetPoint" />
          </mxGeometry>
        </mxCell>
        <mxCell id="XpuALIE9WGxtlJ8F0vGw-4" value="&lt;div&gt;&lt;font style=&quot;font-size: 14px&quot;&gt;&lt;b&gt;MAC&lt;/b&gt;&lt;/font&gt;&lt;/div&gt;&lt;div&gt;&lt;font size=&quot;3&quot; color=&quot;#FF8000&quot;&gt;&lt;font color=&quot;#FF0000&quot;&gt;(.1)&lt;/font&gt;&lt;br&gt;&lt;/font&gt;&lt;/div&gt;&lt;div&gt;&lt;font size=&quot;3&quot; color=&quot;#FF8000&quot;&gt;(.1)&lt;/font&gt;&lt;b&gt;&lt;br&gt;&lt;/b&gt;&lt;/div&gt;&lt;div&gt;&lt;b&gt;&lt;br&gt;&lt;/b&gt;&lt;/div&gt;" style="text;html=1;strokeColor=none;fillColor=none;align=center;verticalAlign=middle;whiteSpace=wrap;rounded=0;" parent="1" vertex="1">
          <mxGeometry x="365" y="207" width="120" height="93" as="geometry" />
        </mxCell>
      </root>
    </mxGraphModel>
  </diagram>
</mxfile>
